999
dxflib 3.12.2.0
  0
SECTION
  2
HEADER
  9
$ACADVER
  1
AC1015
  9
$HANDSEED
  5
FFFF
  9
$DIMADEC
 70
0
  9
$DIMASZ
 40
2.5
  9
$DIMAUNIT
 70
0
  9
$DIMAZIN
 70
2
  9
$DIMDEC
 70
4
  9
$DIMEXE
 40
1.25
  9
$DIMEXO
 40
0.625
  9
$DIMGAP
 40
0.625
  9
$DIMLUNIT
 70
2
  9
$DIMSCALE
 40
1.0
  9
$DIMTSZ
 40
0.0
  9
$DIMTXT
 40
2.5
  9
$DIMZIN
 70
8
  9
$DWGCODEPAGE
  3
ANSI_1252
  9
$INSUNITS
 70
4
  9
$LTSCALE
 40
1.0
  9
$MEASUREMENT
 70
1
  9
$PDMODE
 70
0
  9
$PDSIZE
 40
0
  0
ENDSEC
  0
SECTION
  2
TABLES
  0
TABLE
  2
VPORT
  5
8
100
AcDbSymbolTable
 70
1
  0
VPORT
  5
30
100
AcDbSymbolTableRecord
100
AcDbViewportTableRecord
  2
*Active
 70
0
 10
0.0
 20
0.0
 11
1.0
 21
1.0
 12
286.3055555555554861
 22
148.5
 13
0.0
 23
0.0
 14
10.0
 24
10.0
 15
10.0
 25
10.0
 16
0.0
 26
0.0
 36
1.0
 17
0.0
 27
0.0
 37
0.0
 40
297.0
 41
1.92798353909465
 42
50.0
 43
0.0
 44
0.0
 50
0.0
 51
0.0
 71
0
 72
100
 73
1
 74
3
 75
1
 76
1
 77
0
 78
0
281
0
 65
1
110
0.0
120
0.0
130
0.0
111
1.0
121
0.0
131
0.0
112
0.0
122
1.0
132
0.0
 79
0
146
0.0
  0
ENDTAB
  0
TABLE
  2
LTYPE
  5
5
100
AcDbSymbolTable
 70
41
  0
LTYPE
  5
16
100
AcDbSymbolTableRecord
100
AcDbLinetypeTableRecord
  2
Continuous
 70
0
  3
Solid line
 72
65
 73
0
 40
0.0
  0
LTYPE
  5
31
100
AcDbSymbolTableRecord
100
AcDbLinetypeTableRecord
  2
ACAD_ISO15W100
 70
0
  3
ISO double-dash triple-dot __ __ . . . __ __ . .
 72
65
 73
10
 40
39.0000000000000071
 49
12.0
 74
0
 49
-3.0
 74
0
 49
12.0
 74
0
 49
-2.9500000000000002
 74
0
 49
0.1
 74
0
 49
-2.9000000000000004
 74
0
 49
0.1
 74
0
 49
-2.9000000000000004
 74
0
 49
0.1
 74
0
 49
-2.9500000000000002
 74
0
  0
LTYPE
  5
32
100
AcDbSymbolTableRecord
100
AcDbLinetypeTableRecord
  2
DIVIDE
 70
0
  3
Divide ____ . . ____ . . ____ . . ____ . . ____
 72
65
 73
6
 40
31.7500000000000036
 49
12.6999999999999993
 74
0
 49
-6.2999999999999998
 74
0
 49
0.1
 74
0
 49
-6.25
 74
0
 49
0.1
 74
0
 49
-6.2999999999999998
 74
0
  0
LTYPE
  5
33
100
AcDbSymbolTableRecord
100
AcDbLinetypeTableRecord
  2
ACAD_ISO10W100
 70
0
  3
ISO dash dot __ . __ . __ . __ . __ . __ . __ . 
 72
65
 73
4
 40
18.0
 49
12.0
 74
0
 49
-2.9500000000000002
 74
0
 49
0.1
 74
0
 49
-2.9500000000000002
 74
0
  0
LTYPE
  5
34
100
AcDbSymbolTableRecord
100
AcDbLinetypeTableRecord
  2
ACAD_ISO04W100
 70
0
  3
ISO long-dash dot ____ . ____ . ____ . ____ . _
 72
65
 73
4
 40
30.0
 49
24.0
 74
0
 49
-2.9500000000000002
 74
0
 49
0.1
 74
0
 49
-2.9500000000000002
 74
0
  0
LTYPE
  5
35
100
AcDbSymbolTableRecord
100
AcDbLinetypeTableRecord
  2
CENTER2
 70
0
  3
Center (.5x) ___ _ ___ _ ___ _ ___ _ ___ _ ___
 72
65
 73
4
 40
28.5750000000000028
 49
19.0500000000000007
 74
0
 49
-3.1749999999999998
 74
0
 49
3.1749999999999998
 74
0
 49
-3.1749999999999998
 74
0
  0
LTYPE
  5
36
100
AcDbSymbolTableRecord
100
AcDbLinetypeTableRecord
  2
ACAD_ISO11W100
 70
0
  3
ISO double-dash dot __ __ . __ __ . __ __ . __ _
 72
65
 73
6
 40
33.0
 49
12.0
 74
0
 49
-3.0
 74
0
 49
12.0
 74
0
 49
-2.9500000000000002
 74
0
 49
0.1
 74
0
 49
-2.9500000000000002
 74
0
  0
LTYPE
  5
37
100
AcDbSymbolTableRecord
100
AcDbLinetypeTableRecord
  2
HIDDEN2
 70
0
  3
Hidden (.5x) _ _ _ _ _ _ _ _ _ _ _ _ _ _ _ _ _ 
 72
65
 73
2
 40
4.7624999999999993
 49
3.1749999999999998
 74
0
 49
-1.5874999999999999
 74
0
  0
LTYPE
  5
38
100
AcDbSymbolTableRecord
100
AcDbLinetypeTableRecord
  2
BORDERX2
 70
0
  3
Border (2x) ____  ____  .  ____  ____  .  ___
 72
65
 73
6
 40
88.8999999999999773
 49
25.3999999999999986
 74
0
 49
-12.6999999999999993
 74
0
 49
25.3999999999999986
 74
0
 49
-12.6499999999999986
 74
0
 49
0.1
 74
0
 49
-12.6499999999999986
 74
0
  0
LTYPE
  5
39
100
AcDbSymbolTableRecord
100
AcDbLinetypeTableRecord
  2
ACAD_ISO05W100
 70
0
  3
ISO long-dash double-dot ____ .. ____ .. ____ . 
 72
65
 73
6
 40
33.0000000000000071
 49
24.0
 74
0
 49
-2.9500000000000002
 74
0
 49
0.1
 74
0
 49
-2.9000000000000004
 74
0
 49
0.1
 74
0
 49
-2.9500000000000002
 74
0
  0
LTYPE
  5
3A
100
AcDbSymbolTableRecord
100
AcDbLinetypeTableRecord
  2
DASHDOTX2
 70
0
  3
Dash dot (2x) ____  .  ____  .  ____  .  ___
 72
65
 73
4
 40
50.7999999999999972
 49
25.3999999999999986
 74
0
 49
-12.6499999999999986
 74
0
 49
0.1
 74
0
 49
-12.6499999999999986
 74
0
  0
LTYPE
  5
3B
100
AcDbSymbolTableRecord
100
AcDbLinetypeTableRecord
  2
HIDDENX2
 70
0
  3
Hidden (2x) ____ ____ ____ ____ ____ ____ ____ 
 72
65
 73
2
 40
19.0499999999999972
 49
12.6999999999999993
 74
0
 49
-6.3499999999999996
 74
0
  0
LTYPE
  5
3C
100
AcDbSymbolTableRecord
100
AcDbLinetypeTableRecord
  2
CENTERX2
 70
0
  3
Center (2x) ________  __  ________  __  _____
 72
65
 73
4
 40
101.6000000000000085
 49
63.5
 74
0
 49
-12.6999999999999993
 74
0
 49
12.6999999999999993
 74
0
 49
-12.6999999999999993
 74
0
  0
LTYPE
  5
3D
100
AcDbSymbolTableRecord
100
AcDbLinetypeTableRecord
  2
BORDER2
 70
0
  3
Border (.5x) __.__.__.__.__.__.__.__.__.__.__.
 72
65
 73
6
 40
22.2250000000000014
 49
6.3499999999999996
 74
0
 49
-3.1749999999999998
 74
0
 49
6.3499999999999996
 74
0
 49
-3.125
 74
0
 49
0.1
 74
0
 49
-3.125
 74
0
  0
LTYPE
  5
3E
100
AcDbSymbolTableRecord
100
AcDbLinetypeTableRecord
  2
DASHDOT2
 70
0
  3
Dash dot (.5x) _._._._._._._._._._._._._._._.
 72
65
 73
4
 40
12.6999999999999993
 49
6.3499999999999996
 74
0
 49
-3.125
 74
0
 49
0.1
 74
0
 49
-3.125
 74
0
  0
LTYPE
  5
3F
100
AcDbSymbolTableRecord
100
AcDbLinetypeTableRecord
  2
ACAD_ISO12W100
 70
0
  3
ISO dash double-dot __ . . __ . . __ . . __ . . 
 72
65
 73
6
 40
21.0
 49
12.0
 74
0
 49
-2.9500000000000002
 74
0
 49
0.1
 74
0
 49
-2.9000000000000004
 74
0
 49
0.1
 74
0
 49
-2.9500000000000002
 74
0
  0
LTYPE
  5
40
100
AcDbSymbolTableRecord
100
AcDbLinetypeTableRecord
  2
ACAD_ISO07W100
 70
0
  3
ISO dot . . . . . . . . . . . . . . . . . . . . 
 72
65
 73
2
 40
3.0
 49
0.1
 74
0
 49
-2.8999999999999999
 74
0
  0
LTYPE
  5
41
100
AcDbSymbolTableRecord
100
AcDbLinetypeTableRecord
  2
HIDDEN
 70
0
  3
Hidden __ __ __ __ __ __ __ __ __ __ __ __ __ __
 72
65
 73
2
 40
9.5249999999999986
 49
6.3499999999999996
 74
0
 49
-3.1749999999999998
 74
0
  0
LTYPE
  5
42
100
AcDbSymbolTableRecord
100
AcDbLinetypeTableRecord
  2
ACAD_ISO06W100
 70
0
  3
ISO long-dash triple-dot ____ ... ____ ... ____
 72
65
 73
8
 40
36.0000000000000071
 49
24.0
 74
0
 49
-2.9500000000000002
 74
0
 49
0.1
 74
0
 49
-2.9000000000000004
 74
0
 49
0.1
 74
0
 49
-2.9000000000000004
 74
0
 49
0.1
 74
0
 49
-2.9500000000000002
 74
0
  0
LTYPE
  5
43
100
AcDbSymbolTableRecord
100
AcDbLinetypeTableRecord
  2
CENTER
 70
0
  3
Center ____ _ ____ _ ____ _ ____ _ ____ _ ____
 72
65
 73
4
 40
50.8000000000000043
 49
31.75
 74
0
 49
-6.3499999999999996
 74
0
 49
6.3499999999999996
 74
0
 49
-6.3499999999999996
 74
0
  0
LTYPE
  5
44
100
AcDbSymbolTableRecord
100
AcDbLinetypeTableRecord
  2
DOTX2
 70
0
  3
Dot (2x) .  .  .  .  .  .  .  .  .  .  .  .  .  .
 72
65
 73
2
 40
12.6999999999999993
 49
0.1
 74
0
 49
-12.5999999999999996
 74
0
  0
LTYPE
  5
45
100
AcDbSymbolTableRecord
100
AcDbLinetypeTableRecord
  2
PHANTOM
 70
0
  3
Phantom ______  __  __  ______  __  __  ______ 
 72
65
 73
6
 40
63.5000000000000071
 49
31.75
 74
0
 49
-6.3499999999999996
 74
0
 49
6.3499999999999996
 74
0
 49
-6.3499999999999996
 74
0
 49
6.3499999999999996
 74
0
 49
-6.3499999999999996
 74
0
  0
LTYPE
  5
46
100
AcDbSymbolTableRecord
100
AcDbLinetypeTableRecord
  2
ACAD_ISO08W100
 70
0
  3
ISO long-dash short-dash ____ __ ____ __ ____ _
 72
65
 73
4
 40
36.0
 49
24.0
 74
0
 49
-3.0
 74
0
 49
6.0
 74
0
 49
-3.0
 74
0
  0
LTYPE
  5
47
100
AcDbSymbolTableRecord
100
AcDbLinetypeTableRecord
  2
DASHEDX2
 70
0
  3
Dashed (2x) ____  ____  ____  ____  ____  ___
 72
65
 73
2
 40
38.0999999999999943
 49
25.3999999999999986
 74
0
 49
-12.6999999999999993
 74
0
  0
LTYPE
  5
48
100
AcDbSymbolTableRecord
100
AcDbLinetypeTableRecord
  2
ACAD_ISO02W100
 70
0
  3
ISO dash __ __ __ __ __ __ __ __ __ __ __ __ __
 72
65
 73
2
 40
15.0
 49
12.0
 74
0
 49
-3.0
 74
0
  0
LTYPE
  5
49
100
AcDbSymbolTableRecord
100
AcDbLinetypeTableRecord
  2
PHANTOM2
 70
0
  3
Phantom (.5x) ___ _ _ ___ _ _ ___ _ _ ___ _ _
 72
65
 73
6
 40
31.7500000000000036
 49
15.875
 74
0
 49
-3.1749999999999998
 74
0
 49
3.1749999999999998
 74
0
 49
-3.1749999999999998
 74
0
 49
3.1749999999999998
 74
0
 49
-3.1749999999999998
 74
0
  0
LTYPE
  5
4A
100
AcDbSymbolTableRecord
100
AcDbLinetypeTableRecord
  2
DASHED2
 70
0
  3
Dashed (.5x) _ _ _ _ _ _ _ _ _ _ _ _ _ _ _ _ _ 
 72
65
 73
2
 40
9.5249999999999986
 49
6.3499999999999996
 74
0
 49
-3.1749999999999998
 74
0
  0
LTYPE
  5
4B
100
AcDbSymbolTableRecord
100
AcDbLinetypeTableRecord
  2
ACAD_ISO09W100
 70
0
  3
ISO long-dash double-short-dash ____ __ __ ____
 72
65
 73
6
 40
45.0
 49
24.0
 74
0
 49
-3.0
 74
0
 49
6.0
 74
0
 49
-3.0
 74
0
 49
6.0
 74
0
 49
-3.0
 74
0
  0
LTYPE
  5
4C
100
AcDbSymbolTableRecord
100
AcDbLinetypeTableRecord
  2
ACAD_ISO13W100
 70
0
  3
ISO double-dash double-dot __ __ . . __ __ . . _
 72
65
 73
8
 40
36.0000000000000071
 49
12.0
 74
0
 49
-3.0
 74
0
 49
12.0
 74
0
 49
-2.9500000000000002
 74
0
 49
0.1
 74
0
 49
-2.9000000000000004
 74
0
 49
0.1
 74
0
 49
-2.9500000000000002
 74
0
  0
LTYPE
  5
4D
100
AcDbSymbolTableRecord
100
AcDbLinetypeTableRecord
  2
DOT2
 70
0
  3
Dot (.5x) ........................................
 72
65
 73
2
 40
3.1749999999999998
 49
0.1
 74
0
 49
-3.0749999999999997
 74
0
  0
LTYPE
  5
4E
100
AcDbSymbolTableRecord
100
AcDbLinetypeTableRecord
  2
DASHED
 70
0
  3
Dashed __ __ __ __ __ __ __ __ __ __ __ __ __ _
 72
65
 73
2
 40
19.0499999999999972
 49
12.6999999999999993
 74
0
 49
-6.3499999999999996
 74
0
  0
LTYPE
  5
4F
100
AcDbSymbolTableRecord
100
AcDbLinetypeTableRecord
  2
ACAD_ISO14W100
 70
0
  3
ISO dash triple-dot __ . . . __ . . . __ . . . _
 72
65
 73
8
 40
24.0000000000000036
 49
12.0
 74
0
 49
-2.9500000000000002
 74
0
 49
0.1
 74
0
 49
-2.9000000000000004
 74
0
 49
0.1
 74
0
 49
-2.9000000000000004
 74
0
 49
0.1
 74
0
 49
-2.9500000000000002
 74
0
  0
LTYPE
  5
15
100
AcDbSymbolTableRecord
100
AcDbLinetypeTableRecord
  2
BYLAYER
 70
0
  3

 72
65
 73
0
 40
0.0
  0
LTYPE
  5
50
100
AcDbSymbolTableRecord
100
AcDbLinetypeTableRecord
  2
PHANTOMX2
 70
0
  3
Phantom (2x) ____________    ____    ____   _
 72
65
 73
6
 40
127.0000000000000142
 49
63.5
 74
0
 49
-12.6999999999999993
 74
0
 49
12.6999999999999993
 74
0
 49
-12.6999999999999993
 74
0
 49
12.6999999999999993
 74
0
 49
-12.6999999999999993
 74
0
  0
LTYPE
  5
14
100
AcDbSymbolTableRecord
100
AcDbLinetypeTableRecord
  2
BYBLOCK
 70
0
  3

 72
65
 73
0
 40
0.0
  0
LTYPE
  5
51
100
AcDbSymbolTableRecord
100
AcDbLinetypeTableRecord
  2
DIVIDEX2
 70
0
  3
Divide (2x) ________  .  .  ________  .  .  _
 72
65
 73
6
 40
63.5
 49
25.3999999999999986
 74
0
 49
-12.6499999999999986
 74
0
 49
0.1
 74
0
 49
-12.5999999999999979
 74
0
 49
0.1
 74
0
 49
-12.6499999999999986
 74
0
  0
LTYPE
  5
52
100
AcDbSymbolTableRecord
100
AcDbLinetypeTableRecord
  2
BORDER
 70
0
  3
Border __ __ . __ __ . __ __ . __ __ . __ __ .
 72
65
 73
6
 40
44.4499999999999957
 49
12.6999999999999993
 74
0
 49
-6.3499999999999996
 74
0
 49
12.6999999999999993
 74
0
 49
-6.2999999999999998
 74
0
 49
0.1
 74
0
 49
-6.2999999999999998
 74
0
  0
LTYPE
  5
53
100
AcDbSymbolTableRecord
100
AcDbLinetypeTableRecord
  2
DIVIDE2
 70
0
  3
Divide (.5x) __..__..__..__..__..__..__..__.._
 72
65
 73
6
 40
15.8749999999999982
 49
6.3499999999999996
 74
0
 49
-3.125
 74
0
 49
0.1
 74
0
 49
-3.0750000000000002
 74
0
 49
0.1
 74
0
 49
-3.125
 74
0
  0
LTYPE
  5
54
100
AcDbSymbolTableRecord
100
AcDbLinetypeTableRecord
  2
DOT
 70
0
  3
Dot . . . . . . . . . . . . . . . . . . . . . . . .
 72
65
 73
2
 40
6.3499999999999996
 49
0.1
 74
0
 49
-6.25
 74
0
  0
LTYPE
  5
55
100
AcDbSymbolTableRecord
100
AcDbLinetypeTableRecord
  2
DASHDOT
 70
0
  3
Dash dot __ . __ . __ . __ . __ . __ . __ . __
 72
65
 73
4
 40
25.4000000000000021
 49
12.6999999999999993
 74
0
 49
-6.2999999999999998
 74
0
 49
0.1
 74
0
 49
-6.2999999999999998
 74
0
  0
LTYPE
  5
56
100
AcDbSymbolTableRecord
100
AcDbLinetypeTableRecord
  2
ACAD_ISO03W100
 70
0
  3
ISO dash space __    __    __    __    __    __
 72
65
 73
2
 40
30.0
 49
12.0
 74
0
 49
-18.0
 74
0
  0
ENDTAB
  0
TABLE
  2
LAYER
  5
2
100
AcDbSymbolTable
 70
2
  0
LAYER
  5
10
100
AcDbSymbolTableRecord
100
AcDbLayerTableRecord
  2
0
 70
0
 62
7
420
16777215
  6
Continuous
370
100
390
F
  0
LAYER
  5
57
100
AcDbSymbolTableRecord
100
AcDbLayerTableRecord
  2
helper
 70
0
 62
6
420
16711935
  6
Continuous
370
25
390
F
  0
ENDTAB
  0
TABLE
  2
STYLE
  5
3
100
AcDbSymbolTable
 70
1
  0
STYLE
  5
58
100
AcDbSymbolTableRecord
100
AcDbTextStyleTableRecord
  2
Standard
 70
0
 40
0.0
 41
1.0
 50
0.0
 71
0
 42
2.5
  3

  4

1001
ACAD
1000
txt
1071
0
  0
ENDTAB
  0
TABLE
  2
VIEW
  5
6
100
AcDbSymbolTable
 70
0
  0
ENDTAB
  0
TABLE
  2
UCS
  5
7
100
AcDbSymbolTable
 70
0
  0
ENDTAB
  0
TABLE
  2
APPID
  5
9
100
AcDbSymbolTable
 70
1
  0
APPID
  5
12
100
AcDbSymbolTableRecord
100
AcDbRegAppTableRecord
  2
ACAD
 70
0
  0
APPID
  5
59
100
AcDbSymbolTableRecord
100
AcDbRegAppTableRecord
  2
QCAD
 70
0
  0
ENDTAB
  0
TABLE
  2
DIMSTYLE
  5
A
100
AcDbSymbolTable
 70
1
100
AcDbDimStyleTable
 71
0
  0
DIMSTYLE
105
27
100
AcDbSymbolTableRecord
100
AcDbDimStyleTableRecord
  2
Standard
 41
2.5
 42
0.625
 43
3.75
 44
1.25
 70
0
 73
0
 74
0
 77
1
 78
8
140
2.5
141
2.5
143
0.03937007874016
147
0.625
171
3
172
1
271
2
272
2
274
3
278
44
283
0
284
8
340
58
  0
ENDTAB
  0
TABLE
  2
BLOCK_RECORD
  5
1
100
AcDbSymbolTable
 70
1
  0
BLOCK_RECORD
  5
1F
100
AcDbSymbolTableRecord
100
AcDbBlockTableRecord
  2
*Model_Space
340
22
  0
BLOCK_RECORD
  5
1B
100
AcDbSymbolTableRecord
100
AcDbBlockTableRecord
  2
*Paper_Space
340
1E
  0
BLOCK_RECORD
  5
23
100
AcDbSymbolTableRecord
100
AcDbBlockTableRecord
  2
*Paper_Space0
340
26
  0
ENDTAB
  0
ENDSEC
  0
SECTION
  2
BLOCKS
  0
BLOCK
  5
20
100
AcDbEntity
  8
0
100
AcDbBlockBegin
  2
*Model_Space
 70
0
 10
0.0
 20
0.0
 30
0.0
  3
*Model_Space
  1

  0
ENDBLK
  5
21
100
AcDbEntity
  8
0
100
AcDbBlockEnd
  0
BLOCK
  5
1C
100
AcDbEntity
 67
1
  8
0
100
AcDbBlockBegin
  2
*Paper_Space
 70
0
 10
0.0
 20
0.0
 30
0.0
  3
*Paper_Space
  1

  0
ENDBLK
  5
1D
100
AcDbEntity
 67
1
  8
0
100
AcDbBlockEnd
  0
BLOCK
  5
24
100
AcDbEntity
  8
0
100
AcDbBlockBegin
  2
*Paper_Space0
 70
0
 10
0.0
 20
0.0
 30
0.0
  3
*Paper_Space0
  1

  0
ENDBLK
  5
25
100
AcDbEntity
  8
0
100
AcDbBlockEnd
  0
ENDSEC
  0
SECTION
  2
ENTITIES
  0
DIMENSION
  5
5A
100
AcDbEntity
  8
helper
 62
256
370
-1
 48
1.0
  6
BYLAYER
100
AcDbDimension
 10
-0.0000000000000001
 20
-37.5
 30
0.0
 11
25.0
 21
-35.625
 31
0.0
 70
0
 71
8
 72
2
 41
1.0
 42
0.0
  1
R<>
  3
Standard
100
AcDbAlignedDimension
 13
-0.0000000000000001
 23
-25.0
 33
0.0
 14
50.0
 24
0.0
 34
0.0
 50
0.0
100
AcDbRotatedDimension
1001
ACAD
1000
DSTYLE
1002
{
1070
144
1040
1.0
1070
40
1040
1.0
1002
}
  0
DIMENSION
  5
5B
100
AcDbEntity
  8
helper
 62
256
370
-1
 48
1.0
  6
BYLAYER
100
AcDbDimension
 10
-21.7391304347826093
 20
-25.0
 30
0.0
 11
-23.6141304347826093
 21
25.0
 31
0.0
 70
0
 71
8
 72
2
 41
1.0
 42
0.0
  1

  3
Standard
100
AcDbAlignedDimension
 13
-0.0000000000000001
 23
-25.0
 33
0.0
 14
-0.0000000000000001
 24
75.0
 34
0.0
 50
90.0
100
AcDbRotatedDimension
1001
ACAD
1000
DSTYLE
1002
{
1070
144
1040
1.0
1070
40
1040
1.0
1002
}
  0
DIMENSION
  5
5C
100
AcDbEntity
  8
helper
 62
256
370
-1
 48
1.0
  6
BYLAYER
100
AcDbDimension
 10
-10.0
 20
-25.0
 30
0.0
 11
-11.875
 21
-12.5
 31
0.0
 70
0
 71
8
 72
2
 41
1.0
 42
0.0
  1

  3
Standard
100
AcDbAlignedDimension
 13
-0.0000000000000001
 23
-25.0
 33
0.0
 14
0.0
 24
0.0
 34
0.0
 50
90.0
100
AcDbRotatedDimension
1001
ACAD
1000
DSTYLE
1002
{
1070
144
1040
1.0
1070
40
1040
1.0
1002
}
  0
DIMENSION
  5
5D
100
AcDbEntity
  8
helper
 62
256
370
-1
 48
1.0
  6
BYLAYER
100
AcDbDimension
 10
-10.0
 20
75.0
 30
0.0
 11
-11.875
 21
37.5
 31
0.0
 70
0
 71
8
 72
2
 41
1.0
 42
0.0
  1

  3
Standard
100
AcDbAlignedDimension
 13
-0.0000000000000001
 23
75.0
 33
0.0
 14
-0.625
 24
0.0000000000000001
 34
0.0
 50
90.0
100
AcDbRotatedDimension
1001
ACAD
1000
DSTYLE
1002
{
1070
144
1040
1.0
1070
40
1040
1.0
1002
}
  0
LWPOLYLINE
  5
5E
  8
0
 62
256
370
-1
 48
1.0
  6
BYLAYER
100
AcDbEntity
100
AcDbPolyline
 90
289
 70
128
 10
0.0
 20
-25.0
 30
0.0
 10
0.3733927560184034
 20
-24.9819245983852447
 30
0.0
 10
0.7437845653132729
 20
-24.9286912124277933
 30
0.0
 10
1.1114957397440979
 20
-24.8417890704578568
 30
0.0
 10
1.4768465911703677
 20
-24.722707400805664
 30
0.0
 10
1.8401574314515716
 20
-24.572935431801433
 30
0.0
 10
2.2017485724471992
 20
-24.3939623917753785
 30
0.0
 10
2.5619403260167397
 20
-24.1872775090577221
 30
0.0
 10
2.921053004019682
 20
-23.9543700119786891
 30
0.0
 10
3.2794069183155159
 20
-23.6967291288684834
 30
0.0
 10
3.6373223807637305
 20
-23.4158440880573373
 30
0.0
 10
3.995119703223815
 20
-23.113204117875469
 30
0.0
 10
4.3531191975552597
 20
-22.7902984466530896
 30
0.0
 10
4.7116411756175527
 20
-22.4486163027204242
 30
0.0
 10
5.0710059492701838
 20
-22.0896469144076946
 30
0.0
 10
5.4315338303726417
 20
-21.7148795100451117
 30
0.0
 10
5.793545130784417
 20
-21.3258033179629045
 30
0.0
 10
6.1573601623649985
 20
-20.9239075664912875
 30
0.0
 10
6.5232992369738758
 20
-20.5106814839604752
 30
0.0
 10
6.8916826664705351
 20
-20.0876142987006965
 30
0.0
 10
7.2628307627144721
 20
-19.6561952390421695
 30
0.0
 10
7.6370638375651696
 20
-19.2179135333150981
 30
0.0
 10
8.0147022028821215
 20
-18.7742584098497218
 30
0.0
 10
8.3960661705248132
 20
-18.3267190969762481
 30
0.0
 10
8.7814760523527386
 20
-17.8767848230248987
 30
0.0
 10
9.171252160225384
 20
-17.4259448163258952
 30
0.0
 10
9.565714806002239
 20
-16.9756883052094523
 30
0.0
 10
9.965184301542795
 20
-16.5275045180057916
 30
0.0
 10
10.3699809587065364
 20
-16.0828826830451348
 30
0.0
 10
10.7804250893529563
 20
-15.6433120286577001
 30
0.0
 10
11.1968370053415462
 20
-15.2102817831737038
 30
0.0
 10
11.6195370185317888
 20
-14.7852811749233659
 30
0.0
 10
12.0488454407831806
 20
-14.369799432236908
 30
0.0
 10
12.4850041522653896
 20
-13.9650583465277833
 30
0.0
 10
12.9279413063888278
 20
-13.5712099615423885
 30
0.0
 10
13.3775066248740817
 20
-13.1881388841103604
 30
0.0
 10
13.8335498294417469
 20
-12.8157297210613272
 30
0.0
 10
14.2959206418124154
 20
-12.4538670792249277
 30
0.0
 10
14.764468783706679
 20
-12.1024355654307865
 30
0.0
 10
15.2390439768451245
 20
-11.7613197865085457
 30
0.0
 10
15.719495942948349
 20
-11.4304043492878371
 30
0.0
 10
16.2056744037369498
 20
-11.1095738605982906
 30
0.0
 10
16.6974290809315065
 20
-10.7987129272695377
 30
0.0
 10
17.1946096962526127
 20
-10.4977061561312173
 30
0.0
 10
17.6970659714208658
 20
-10.206438154012961
 30
0.0
 10
18.2046476281568559
 20
-9.9247935277444022
 30
0.0
 10
18.7172043881811767
 20
-9.6526568841551708
 30
0.0
 10
19.2345859732144149
 20
-9.389912830074902
 30
0.0
 10
19.7566421049771677
 20
-9.1364459723332292
 30
0.0
 10
20.2832225051900181
 20
-8.8921409177597859
 30
0.0
 10
20.8141768955735742
 20
-8.656882273184209
 30
0.0
 10
21.3493549978484083
 20
-8.4305546454361231
 30
0.0
 10
21.8886065337351212
 20
-8.2130426413451669
 30
0.0
 10
22.4317812249543103
 20
-8.0042308677409739
 30
0.0
 10
22.9787287932265585
 20
-7.8040039314531766
 30
0.0
 10
23.5292989602724631
 20
-7.6122464393114084
 30
0.0
 10
24.0833414478126109
 20
-7.428842998145301
 30
0.0
 10
24.6407059775675989
 20
-7.2536782147844887
 30
0.0
 10
25.2012422712580175
 20
-7.0866366960586058
 30
0.0
 10
25.7648000506044568
 20
-6.9276030487972839
 30
0.0
 10
26.3312290373275069
 20
-6.7764618798301566
 30
0.0
 10
26.9003789531477651
 20
-6.633097795986858
 30
0.0
 10
27.4720995197858215
 20
-6.497395404097019
 30
0.0
 10
28.0462404589622594
 20
-6.3692393109902756
 30
0.0
 10
28.6226514923976794
 20
-6.2485141234962596
 30
0.0
 10
29.2011078907361536
 20
-6.1350601476972573
 30
0.0
 10
29.7810871203157248
 20
-6.0285404866861674
 30
0.0
 10
30.3619921963978605
 20
-5.9285739428085407
 30
0.0
 10
30.9432261342441102
 20
-5.8347793184099297
 30
0.0
 10
31.5241919491159592
 20
-5.7467754158358826
 30
0.0
 10
32.1042926562749145
 20
-5.6641810374319537
 30
0.0
 10
32.6829312709824933
 20
-5.5866149855436928
 30
0.0
 10
33.2595108085001954
 20
-5.5136960625166509
 30
0.0
 10
33.8334342840895346
 20
-5.4450430706963804
 30
0.0
 10
34.4041047130120248
 20
-5.3802748124284312
 30
0.0
 10
34.9709251105291585
 20
-5.3190100900583559
 30
0.0
 10
35.5332984919024568
 20
-5.2608677059317044
 30
0.0
 10
36.0906278723934122
 20
-5.2054664623940283
 30
0.0
 10
36.6423162672635527
 20
-5.1524251617908785
 30
0.0
 10
37.187766691774371
 20
-5.1013626064678075
 30
0.0
 10
37.726382161187388
 20
-5.0518975987703651
 30
0.0
 10
38.2575656907641033
 20
-5.0036489410441041
 30
0.0
 10
38.7807202957660166
 20
-4.956235435634575
 30
0.0
 10
39.2952489914546561
 20
-4.909275884887327
 30
0.0
 10
39.8005547930915071
 20
-4.8623890911479144
 30
0.0
 10
40.2960407159380978
 20
-4.815193856761887
 30
0.0
 10
40.7811097752559206
 20
-4.7673089840747966
 30
0.0
 10
41.2551649863064966
 20
-4.7183532754321922
 30
0.0
 10
41.7176093643513184
 20
-4.6679455331796289
 30
0.0
 10
42.1678459246519139
 20
-4.6157045596626549
 30
0.0
 10
42.6052776824697759
 20
-4.5612491572268219
 30
0.0
 10
43.0293076530664038
 20
-4.5041981282176833
 30
0.0
 10
43.439338851703333
 20
-4.4441702749807863
 30
0.0
 10
43.8347742936420417
 20
-4.3807843998616853
 30
0.0
 10
44.2150169941440794
 20
-4.313659305205932
 30
0.0
 10
44.579469968470903
 20
-4.2424137933590744
 30
0.0
 10
44.927536231884055
 20
-4.1666666666666661
 30
0.0
 10
45.2587846396625935
 20
-4.0861256917317705
 30
0.0
 10
45.5734474071557969
 20
-4.0008544921874991
 30
0.0
 10
45.8719225897305236
 20
-3.9110056559244786
 30
0.0
 10
46.1546082427536106
 20
-3.8167317708333335
 30
0.0
 10
46.4219024215919376
 20
-3.7181854248046871
 30
0.0
 10
46.6742031816123202
 20
-3.6155192057291661
 30
0.0
 10
46.9119085781816096
 20
-3.5088857014973955
 30
0.0
 10
47.1354166666666643
 20
-3.3984375
 30
0.0
 10
47.3451255024343283
 20
-3.2843271891276036
 30
0.0
 10
47.5414331408514457
 20
-3.166707356770833
 30
0.0
 10
47.7247376372848677
 20
-3.0457305908203125
 30
0.0
 10
47.8954370471014386
 20
-2.9215494791666661
 30
0.0
 10
48.0539294256680165
 20
-2.7943166097005205
 30
0.0
 10
48.2006128283514528
 20
-2.6641845703125
 30
0.0
 10
48.3358853105185631
 20
-2.5313059488932286
 30
0.0
 10
48.460144927536227
 20
-2.395833333333333
 30
0.0
 10
48.5737897347712888
 20
-2.2579193115234375
 30
0.0
 10
48.6772177875905783
 20
-2.1177164713541661
 30
0.0
 10
48.7708271413609538
 20
-1.9753774007161458
 30
0.0
 10
48.8550158514492736
 20
-1.8310546875
 30
0.0
 10
48.9301819732223748
 20
-1.6849009195963538
 30
0.0
 10
48.9967235620471016
 20
-1.5370686848958333
 30
0.0
 10
49.055038673290305
 20
-1.3877105712890625
 30
0.0
 10
49.1055253623188435
 20
-1.2369791666666665
 30
0.0
 10
49.1485816844995469
 20
-1.0850270589192708
 30
0.0
 10
49.1846056951992665
 20
-0.9320068359374999
 30
0.0
 10
49.2139954497848677
 20
-0.7780710856119788
 30
0.0
 10
49.2371490036231876
 20
-0.6233723958333333
 30
0.0
 10
49.2544644120810702
 20
-0.4680633544921873
 30
0.0
 10
49.2663397305253596
 20
-0.3122965494791664
 30
0.0
 10
49.2731730143229143
 20
-0.1562245686848956
 30
0.0
 10
49.2753623188405783
 20
0.0000000000000002
 30
0.0
 10
49.2731730143229143
 20
0.1562372843424482
 30
0.0
 10
49.2663397305253596
 20
0.3123982747395835
 30
0.0
 10
49.2544644120810702
 20
0.468406677246094
 30
0.0
 10
49.2371490036231876
 20
0.624186197916667
 30
0.0
 10
49.2139954497848677
 20
0.7796605428059898
 30
0.0
 10
49.1846056951992665
 20
0.9347534179687502
 30
0.0
 10
49.1485816844995469
 20
1.0893885294596357
 30
0.0
 10
49.1055253623188435
 20
1.2434895833333335
 30
0.0
 10
49.055038673290305
 20
1.3969802856445317
 30
0.0
 10
48.9967235620471016
 20
1.549784342447917
 30
0.0
 10
48.9301819732223748
 20
1.7018254597981772
 30
0.0
 10
48.8550158514492736
 20
1.85302734375
 30
0.0
 10
48.7708271413609538
 20
2.0033137003580732
 30
0.0
 10
48.6772177875905783
 20
2.1526082356770835
 30
0.0
 10
48.5737897347712888
 20
2.3008346557617192
 30
0.0
 10
48.460144927536227
 20
2.447916666666667
 30
0.0
 10
48.3358853105185631
 20
2.5937779744466147
 30
0.0
 10
48.2006128283514528
 20
2.7383422851562504
 30
0.0
 10
48.0539294256680165
 20
2.8815333048502607
 30
0.0
 10
47.8954370471014386
 20
3.0232747395833339
 30
0.0
 10
47.7247376372848677
 20
3.1634902954101562
 30
0.0
 10
47.5414331408514457
 20
3.302103678385417
 30
0.0
 10
47.3451255024343283
 20
3.4390385945638027
 30
0.0
 10
47.1354166666666643
 20
3.57421875
 30
0.0
 10
46.9119085781816096
 20
3.7075678507486982
 30
0.0
 10
46.6742031816123202
 20
3.8390096028645839
 30
0.0
 10
46.4219024215919376
 20
3.9684677124023442
 30
0.0
 10
46.1546082427536106
 20
4.095865885416667
 30
0.0
 10
45.8719225897305236
 20
4.2211278279622402
 30
0.0
 10
45.5734474071557969
 20
4.3441772460937509
 30
0.0
 10
45.2587846396625935
 20
4.4649378458658857
 30
0.0
 10
44.927536231884055
 20
4.5833333333333339
 30
0.0
 10
44.5794699848561962
 20
4.6993255615234384
 30
0.0
 10
44.2150171252264528
 20
4.8130289713541679
 30
0.0
 10
43.8347747360450555
 20
4.9245961507161464
 30
0.0
 10
43.4393399003623131
 20
5.0341796875000009
 30
0.0
 10
43.0293097012284846
 20
5.1419321695963554
 30
0.0
 10
42.6052812216938435
 20
5.2480061848958339
 30
0.0
 10
42.1678515448086557
 20
5.3525543212890625
 30
0.0
 10
41.7176177536231876
 20
5.455729166666667
 30
0.0
 10
41.2551769311877266
 20
5.5576833089192714
 30
0.0
 10
40.7811261605525317
 20
5.6585693359375
 30
0.0
 10
40.2960625247678905
 20
5.7585398356119804
 30
0.0
 10
39.800583106884055
 20
5.8577473958333339
 30
0.0
 10
39.2952849899513126
 20
5.9563446044921875
 30
0.0
 10
38.7807652570199224
 20
6.0544840494791679
 30
0.0
 10
38.2576209911401719
 20
6.1523183186848964
 30
0.0
 10
37.7264492753623131
 20
6.25
 30
0.0
 10
37.1878471927366334
 20
6.3476816813151054
 30
0.0
 10
36.6424118263134062
 20
6.4455159505208339
 30
0.0
 10
36.0907402591428834
 20
6.5436553955078125
 30
0.0
 10
35.5334295742753596
 20
6.6422526041666679
 30
0.0
 10
34.971076854761094
 20
6.7414601643880214
 30
0.0
 10
34.4042791836503596
 20
6.8414306640625009
 30
0.0
 10
33.8336336439934371
 20
6.9423166910807304
 30
0.0
 10
33.2597373188405783
 20
7.0442708333333339
 30
0.0
 10
32.6831872912420778
 20
7.1474456787109375
 30
0.0
 10
32.1045806442481876
 20
7.2519938151041679
 30
0.0
 10
31.5245144609091987
 20
7.3580678304036464
 30
0.0
 10
30.9435858242753561
 20
7.4658203125
 30
0.0
 10
30.3623918173969649
 20
7.5754038492838554
 30
0.0
 10
29.7815295233242736
 20
7.6869710286458339
 30
0.0
 10
29.2015960251075626
 20
7.8006744384765634
 30
0.0
 10
28.6231884057971016
 20
7.9166666666666679
 30
0.0
 10
28.046848462975543
 20
8.0353291829427089
 30
0.0
 10
27.4728968523550705
 20
8.1579589843750018
 30
0.0
 10
26.9015989441802539
 20
8.2860819498697929
 30
0.0
 10
26.3332201086956523
 20
8.4212239583333339
 30
0.0
 10
25.7680257161458321
 20
8.564910888671875
 30
0.0
 10
25.2062811367753596
 20
8.7186686197916679
 30
0.0
 10
24.6482517408288047
 20
8.8840230305989589
 30
0.0
 10
24.0942028985507264
 20
9.0625
 30
0.0
 10
23.5443999801856876
 20
9.2556254069010429
 30
0.0
 10
22.9991083559782616
 20
9.4649251302083339
 30
0.0
 10
22.4585933961730078
 20
9.691925048828125
 30
0.0
 10
21.9231204710144887
 20
9.9381510416666679
 30
0.0
 10
21.3929549507472814
 20
10.2051289876302089
 30
0.0
 10
20.8683622056159379
 20
10.4943847656250036
 30
0.0
 10
20.3496076058650388
 20
10.8074442545572929
 30
0.0
 10
19.8369565217391255
 20
11.1458333333333339
 30
0.0
 10
19.3306743234827891
 20
11.511077880859375
 30
0.0
 10
18.8310263813405783
 20
11.9047037760416679
 30
0.0
 10
18.3382780655570627
 20
12.3282368977864607
 30
0.0
 10
17.8526947463768053
 20
12.783203125
 30
0.0
 10
17.3745417940443829
 20
13.2711283365885429
 30
0.0
 10
16.9040845788043441
 20
13.7935384114583357
 30
0.0
 10
16.4415884709012659
 20
14.351959228515625
 30
0.0
 10
15.9873188405797073
 20
14.9479166666666679
 30
0.0
 10
15.5415410580842366
 20
15.5829366048177107
 30
0.0
 10
15.1045204936594182
 20
16.258544921875
 30
0.0
 10
14.6765225175498184
 20
16.9762674967447929
 30
0.0
 10
14.2578125
 20
17.7376302083333357
 30
0.0
 10
13.8486558112545293
 20
18.544158935546875
 30
0.0
 10
13.4493178215579707
 20
19.3973795572916679
 30
0.0
 10
13.0600639011548907
 20
20.2988179524739607
 30
0.0
 10
12.6811594202898554
 20
21.25
 30
0.0
 10
12.3128034066462888
 20
22.2516759236653634
 30
0.0
 10
11.9549295176630448
 20
23.3014933268229179
 30
0.0
 10
11.6074050682178438
 20
24.3963241577148438
 30
0.0
 10
11.270097373188408
 20
25.5330403645833321
 30
0.0
 10
10.9428737474524471
 20
26.7085138956705777
 30
0.0
 10
10.6256015058876798
 20
27.91961669921875
 30
0.0
 10
10.31814796337183
 20
29.1632207234700545
 30
0.0
 10
10.0203804347826075
 20
30.4361979166666679
 30
0.0
 10
9.7321662349977363
 20
31.7354202270507812
 30
0.0
 10
9.4533726788949277
 20
33.0577596028645857
 30
0.0
 10
9.1838670813519023
 20
34.4000879923502652
 30
0.0
 10
8.9235167572463769
 20
35.75927734375
 30
0.0
 10
8.6721890214560702
 20
37.132199605305992
 30
0.0
 10
8.4297511888586953
 20
38.5157267252604214
 30
0.0
 10
8.1960705743319728
 20
39.9067306518554688
 30
0.0
 10
7.9710144927536222
 20
41.3020833333333357
 30
0.0
 10
7.7544502590013575
 20
42.6986567179362027
 30
0.0
 10
7.5462451879528984
 20
44.09332275390625
 30
0.0
 10
7.3462665944859591
 20
45.4829533894856795
 30
0.0
 10
7.1543817934782616
 20
46.8644205729166714
 30
0.0
 10
6.9704580998075176
 20
48.2345962524414062
 30
0.0
 10
6.7943628283514492
 20
49.5903523763020857
 30
0.0
 10
6.6259632939877715
 20
50.9285608927408902
 30
0.0
 10
6.4651268115942031
 20
52.24609375
 30
0.0
 10
6.3117206960484609
 20
53.539822896321617
 30
0.0
 10
6.1656122622282599
 20
54.8066202799479214
 30
0.0
 10
6.0266688250113223
 20
56.0433578491211009
 30
0.0
 10
5.8947576992753614
 20
57.2469075520833357
 30
0.0
 10
5.7697461998980977
 20
58.4141413370768277
 30
0.0
 10
5.6515016417572461
 20
59.5419311523437571
 30
0.0
 10
5.5398913397305254
 20
60.6271489461263045
 30
0.0
 10
5.4347826086956523
 20
61.6666666666666714
 30
0.0
 10
5.3358990213145381
 20
62.6580556233723982
 30
0.0
 10
5.2423891813858692
 20
63.6016845703125071
 30
0.0
 10
5.1532579504925273
 20
64.4986216227213589
 30
0.0
 10
5.0675101902173916
 20
65.3499348958333428
 30
0.0
 10
4.9841507621433436
 20
66.1566925048828125
 30
0.0
 10
4.9021845278532599
 20
66.9199625651041714
 30
0.0
 10
4.8206163489300273
 20
67.6408131917317803
 30
0.0
 10
4.7384510869565215
 20
68.3203125
 30
0.0
 10
4.654693603515625
 20
68.9595286051432339
 30
0.0
 10
4.5683487601902177
 20
69.5595296223958428
 30
0.0
 10
4.4784214185631788
 20
70.1213836669921875
 30
0.0
 10
4.3839164402173907
 20
70.6461588541666714
 30
0.0
 10
4.2838386867357334
 20
71.1349232991536553
 30
0.0
 10
4.1771930197010869
 20
71.5887451171875
 30
0.0
 10
4.062984300696332
 20
72.0086924235026089
 30
0.0
 10
3.9402173913043477
 20
72.3958333333333428
 30
0.0
 10
3.8078971531080157
 20
72.7512359619140625
 30
0.0
 10
3.6650284476902173
 20
73.0759684244791714
 30
0.0
 10
3.5106161366338311
 20
73.3710988362630303
 30
0.0
 10
3.3436650815217392
 20
73.6376953125
 30
0.0
 10
3.1631801439368203
 20
73.8768259684244839
 30
0.0
 10
2.968166185461957
 20
74.0895589192708428
 30
0.0
 10
2.7576280676800273
 20
74.2769622802734375
 30
0.0
 10
2.5305706521739126
 20
74.4401041666666714
 30
0.0
 10
2.2859988005264942
 20
74.5800526936849053
 30
0.0
 10
2.0229173743206523
 20
74.6978759765625
 30
0.0
 10
1.7403312351392661
 20
74.7946421305338589
 30
0.0
 10
1.4372452445652173
 20
74.8714192708333286
 30
0.0
 10
1.1126642641813858
 20
74.9292755126953125
 30
0.0
 10
0.7655931555706522
 20
74.9692789713541714
 30
0.0
 10
0.3950367803158967
 20
74.9924977620442661
 30
0.0
 10
0.0
 20
75.0
 30
0.0
  0
SPLINE
  5
5F
  8
helper
 62
256
370
-1
 48
1.0
  6
BYLAYER
100
AcDbEntity
100
AcDbSpline
 70
8
 71
3
 72
16
 73
12
 74
0
 40
0.0
 40
0.0
 40
0.0
 40
0.0
 40
1.0
 40
2.0
 40
3.0
 40
4.0
 40
5.0
 40
6.0
 40
7.0
 40
8.0
 40
9.0
 40
9.0
 40
9.0
 40
9.0
 10
-0.0025137185714748
 20
-24.9812849006908841
 30
0.0
 10
3.9974862814285252
 20
-24.9812849006908841
 30
0.0
 10
10.863830018423295
 20
-12.4723696416684415
 30
0.0
 10
28.2583558466459159
 20
-4.9812849006908841
 30
0.0
 10
47.8235732379502565
 20
-4.9812849006908841
 30
0.0
 10
49.9974862814285217
 20
0.0187150993091159
 30
0.0
 10
47.8235732379502565
 20
5.0187150993091159
 30
0.0
 10
28.2583558466459159
 20
7.5187150993091159
 30
0.0
 10
10.8670514988198299
 20
12.5187150993091159
 30
0.0
 10
4.3453123683850468
 20
70.0187150993091194
 30
0.0
 10
4.3453123683850468
 20
75.0187150993091194
 30
0.0
 10
-0.0025137185714748
 20
75.0187150993091194
 30
0.0
  0
ENDSEC
  0
SECTION
  2
OBJECTS
  0
DICTIONARY
  5
C
100
AcDbDictionary
280
0
281
1
  3
ACAD_GROUP
350
D
  3
ACAD_LAYOUT
350
1A
  3
ACAD_MLINESTYLE
350
17
  3
ACAD_PLOTSETTINGS
350
19
  3
ACAD_PLOTSTYLENAME
350
E
  3
AcDbVariableDictionary
350
60
  3
QCAD_OBJECTS
350
61
  0
DICTIONARY
  5
D
100
AcDbDictionary
280
0
281
1
  0
ACDBDICTIONARYWDFLT
  5
E
100
AcDbDictionary
281
1
  3
Normal
350
F
100
AcDbDictionaryWithDefault
340
F
  0
ACDBPLACEHOLDER
  5
F
  0
DICTIONARY
  5
17
100
AcDbDictionary
280
0
281
1
  3
Standard
350
18
  0
MLINESTYLE
  5
18
100
AcDbMlineStyle
  2
STANDARD
 70
0
  3

 62
256
 51
90.0
 52
90.0
 71
2
 49
0.5
 62
256
  6
BYLAYER
 49
-0.5
 62
256
  6
BYLAYER
  0
DICTIONARY
  5
19
100
AcDbDictionary
280
0
281
1
  0
DICTIONARY
  5
1A
100
AcDbDictionary
281
1
  3
Layout1
350
1E
  3
Layout2
350
26
  3
Model
350
22
  0
LAYOUT
  5
1E
100
AcDbPlotSettings
  1

  2
none_device
  4

  6

 40
0.0
 41
0.0
 42
0.0
 43
0.0
 44
0.0
 45
0.0
 46
0.0
 47
0.0
 48
0.0
 49
0.0
140
0.0
141
0.0
142
1.0
143
1.0
 70
688
 72
0
 73
0
 74
5
  7

 75
16
147
1.0
148
0.0
149
0.0
100
AcDbLayout
  1
Layout1
 70
1
 71
1
 10
0.0
 20
0.0
 11
420.0
 21
297.0
 12
0.0
 22
0.0
 32
0.0
 14
100000000000000000000.0
 24
100000000000000000000.0
 34
100000000000000000000.0
 15
-100000000000000000000.0
 25
-100000000000000000000.0
 35
-100000000000000000000.0
146
0.0
 13
0.0
 23
0.0
 33
0.0
 16
1.0
 26
0.0
 36
0.0
 17
0.0
 27
1.0
 37
0.0
 76
0
330
1B
  0
LAYOUT
  5
22
100
AcDbPlotSettings
  1

  2
none_device
  4

  6

 40
0.0
 41
0.0
 42
0.0
 43
0.0
 44
0.0
 45
0.0
 46
0.0
 47
0.0
 48
0.0
 49
0.0
140
0.0
141
0.0
142
1.0
143
1.0
 70
1712
 72
0
 73
0
 74
0
  7

 75
0
147
1.0
148
0.0
149
0.0
100
AcDbLayout
  1
Model
 70
1
 71
0
 10
0.0
 20
0.0
 11
12.0
 21
9.0
 12
0.0
 22
0.0
 32
0.0
 14
0.0
 24
0.0
 34
0.0
 15
0.0
 25
0.0
 35
0.0
146
0.0
 13
0.0
 23
0.0
 33
0.0
 16
1.0
 26
0.0
 36
0.0
 17
0.0
 27
1.0
 37
0.0
 76
0
330
1F
  0
LAYOUT
  5
26
100
AcDbPlotSettings
  1

  2
none_device
  4

  6

 40
0.0
 41
0.0
 42
0.0
 43
0.0
 44
0.0
 45
0.0
 46
0.0
 47
0.0
 48
0.0
 49
0.0
140
0.0
141
0.0
142
1.0
143
1.0
 70
688
 72
0
 73
0
 74
5
  7

 75
16
147
1.0
148
0.0
149
0.0
100
AcDbLayout
  1
Layout2
 70
1
 71
2
 10
0.0
 20
0.0
 11
12.0
 21
9.0
 12
0.0
 22
0.0
 32
0.0
 14
0.0
 24
0.0
 34
0.0
 15
0.0
 25
0.0
 35
0.0
146
0.0
 13
0.0
 23
0.0
 33
0.0
 16
1.0
 26
0.0
 36
0.0
 17
0.0
 27
1.0
 37
0.0
 76
0
330
23
  0
DICTIONARY
  5
60
100
AcDbDictionary
281
1
  3
DIMASSOC
350
63
  3
HIDETEXT
350
62
  0
DICTIONARYVAR
  5
62
100
DictionaryVariables
280
0
  1
2
  0
DICTIONARYVAR
  5
63
100
DictionaryVariables
280
0
  1
1
  0
DICTIONARY
  5
61
100
AcDbDictionary
281
1
  3
ColorSettings/BackgroundColor
350
64
  3
ColorSettings/ColorMode
350
65
  3
Grid/DisplayGrid00
350
66
  3
Grid/DisplayGrid01
350
67
  3
Grid/DisplayGrid02
350
68
  3
Grid/DisplayGrid03
350
69
  3
Grid/GridSpacingX00
350
6A
  3
Grid/GridSpacingX01
350
6B
  3
Grid/GridSpacingX02
350
6C
  3
Grid/GridSpacingX03
350
6D
  3
Grid/GridSpacingY00
350
6E
  3
Grid/GridSpacingY01
350
6F
  3
Grid/GridSpacingY02
350
70
  3
Grid/GridSpacingY03
350
71
  3
Grid/IsometricGrid00
350
72
  3
Grid/IsometricGrid01
350
73
  3
Grid/IsometricGrid02
350
74
  3
Grid/IsometricGrid03
350
75
  3
Grid/IsometricProjection00
350
76
  3
Grid/IsometricProjection01
350
77
  3
Grid/IsometricProjection02
350
78
  3
Grid/IsometricProjection03
350
79
  3
Grid/MetaGridSpacingX00
350
7A
  3
Grid/MetaGridSpacingX01
350
7B
  3
Grid/MetaGridSpacingX02
350
7C
  3
Grid/MetaGridSpacingX03
350
7D
  3
Grid/MetaGridSpacingY00
350
7E
  3
Grid/MetaGridSpacingY01
350
7F
  3
Grid/MetaGridSpacingY02
350
80
  3
Grid/MetaGridSpacingY03
350
81
  3
MultiPageSettings/Columns
350
82
  3
MultiPageSettings/GlueMarginsBottom
350
83
  3
MultiPageSettings/GlueMarginsLeft
350
84
  3
MultiPageSettings/GlueMarginsRight
350
85
  3
MultiPageSettings/GlueMarginsTop
350
86
  3
MultiPageSettings/PrintCropMarks
350
87
  3
MultiPageSettings/Rows
350
88
  3
PageSettings/OffsetX
350
89
  3
PageSettings/OffsetY
350
8A
  3
PageSettings/PageOrientation
350
8B
  3
PageSettings/PaperHeight
350
8C
  3
PageSettings/PaperWidth
350
8D
  3
PageSettings/Scale
350
8E
  3
PageSettings/ShowPaperBorders
350
8F
  3
QCADVersion
350
90
  3
UnitSettings/PaperUnit
350
91
  3
ViewportCenter
350
92
  3
ViewportHeight
350
93
  3
ViewportWidth
350
94
  0
XRECORD
  5
64
330
61
100
AcDbXrecord
280
1
1000
White
  0
XRECORD
  5
65
330
61
100
AcDbXrecord
280
1
1000
FullColor
  0
XRECORD
  5
66
330
61
100
AcDbXrecord
280
1
290
1
  0
XRECORD
  5
67
330
61
100
AcDbXrecord
280
1
290
1
  0
XRECORD
  5
68
330
61
100
AcDbXrecord
280
1
290
1
  0
XRECORD
  5
69
330
61
100
AcDbXrecord
280
1
290
1
  0
XRECORD
  5
6A
330
61
100
AcDbXrecord
280
1
1000
auto
  0
XRECORD
  5
6B
330
61
100
AcDbXrecord
280
1
1000
auto
  0
XRECORD
  5
6C
330
61
100
AcDbXrecord
280
1
1000
auto
  0
XRECORD
  5
6D
330
61
100
AcDbXrecord
280
1
1000
auto
  0
XRECORD
  5
6E
330
61
100
AcDbXrecord
280
1
1000
auto
  0
XRECORD
  5
6F
330
61
100
AcDbXrecord
280
1
1000
auto
  0
XRECORD
  5
70
330
61
100
AcDbXrecord
280
1
1000
auto
  0
XRECORD
  5
71
330
61
100
AcDbXrecord
280
1
1000
auto
  0
XRECORD
  5
72
330
61
100
AcDbXrecord
280
1
290
0
  0
XRECORD
  5
73
330
61
100
AcDbXrecord
280
1
290
0
  0
XRECORD
  5
74
330
61
100
AcDbXrecord
280
1
290
0
  0
XRECORD
  5
75
330
61
100
AcDbXrecord
280
1
290
0
  0
XRECORD
  5
76
330
61
100
AcDbXrecord
280
1
 90
0
  0
XRECORD
  5
77
330
61
100
AcDbXrecord
280
1
 90
0
  0
XRECORD
  5
78
330
61
100
AcDbXrecord
280
1
 90
0
  0
XRECORD
  5
79
330
61
100
AcDbXrecord
280
1
 90
0
  0
XRECORD
  5
7A
330
61
100
AcDbXrecord
280
1
1000
auto
  0
XRECORD
  5
7B
330
61
100
AcDbXrecord
280
1
1000
auto
  0
XRECORD
  5
7C
330
61
100
AcDbXrecord
280
1
1000
auto
  0
XRECORD
  5
7D
330
61
100
AcDbXrecord
280
1
1000
auto
  0
XRECORD
  5
7E
330
61
100
AcDbXrecord
280
1
1000
auto
  0
XRECORD
  5
7F
330
61
100
AcDbXrecord
280
1
1000
auto
  0
XRECORD
  5
80
330
61
100
AcDbXrecord
280
1
1000
auto
  0
XRECORD
  5
81
330
61
100
AcDbXrecord
280
1
1000
auto
  0
XRECORD
  5
82
330
61
100
AcDbXrecord
280
1
 90
1
  0
XRECORD
  5
83
330
61
100
AcDbXrecord
280
1
 40
10.0
  0
XRECORD
  5
84
330
61
100
AcDbXrecord
280
1
 40
10.0
  0
XRECORD
  5
85
330
61
100
AcDbXrecord
280
1
 40
10.0
  0
XRECORD
  5
86
330
61
100
AcDbXrecord
280
1
 40
10.0
  0
XRECORD
  5
87
330
61
100
AcDbXrecord
280
1
290
0
  0
XRECORD
  5
88
330
61
100
AcDbXrecord
280
1
 90
1
  0
XRECORD
  5
89
330
61
100
AcDbXrecord
280
1
 40
0.0
  0
XRECORD
  5
8A
330
61
100
AcDbXrecord
280
1
 40
0.0
  0
XRECORD
  5
8B
330
61
100
AcDbXrecord
280
1
1000
Portrait
  0
XRECORD
  5
8C
330
61
100
AcDbXrecord
280
1
 40
297.0
  0
XRECORD
  5
8D
330
61
100
AcDbXrecord
280
1
 40
210.0
  0
XRECORD
  5
8E
330
61
100
AcDbXrecord
280
1
1000
1:1
  0
XRECORD
  5
8F
330
61
100
AcDbXrecord
280
1
290
1
  0
XRECORD
  5
90
330
61
100
AcDbXrecord
280
1
1000
3.15.5
  0
XRECORD
  5
91
330
61
100
AcDbXrecord
280
1
 90
4
  0
XRECORD
  5
93
330
61
100
AcDbXrecord
280
1
 40
85.3530140858730846
  0
XRECORD
  5
94
330
61
100
AcDbXrecord
280
1
 40
164.6013092834850511
  0
ENDSEC
  0
EOF
